<?xml version="1.0" encoding="utf-8"?>
<!-- Generator: Adobe Illustrator 16.0.0, SVG Export Plug-In . SVG Version: 6.00 Build 0)  -->
<!DOCTYPE svg PUBLIC "-//W3C//DTD SVG 1.1//EN" "http://www.w3.org/Graphics/SVG/1.1/DTD/svg11.dtd">
<svg version="1.1" id="Layer_1" xmlns="http://www.w3.org/2000/svg" xmlns:xlink="http://www.w3.org/1999/xlink" x="0px" y="0px"
	 width="322.841px" height="279.59px" viewBox="0 0 322.841 279.59" enable-background="new 0 0 322.841 279.59"
	 xml:space="preserve">
<polygon fill="#B8C6A5" points="161.934,23.253 22.512,265.919 299.845,270.589 "/>
<path fill="none" stroke="#231F20" stroke-width="16" stroke-miterlimit="10" d="M215.829,110.237
	c-11.603,14.609-31.609,24.256-54.344,24.256c-22.786,0-42.831-9.691-54.421-24.354"/>
<path fill="#6ABEB1" d="M161.178,7.589l-51.095,97.33c0,0,14.273,25.67,51.851,25.17c37.578-0.5,53.526-20.49,51.577-23.865
	S161.178,7.589,161.178,7.589z"/>
<polygon fill="#F6F8D3" points="165.231,170.253 107.512,270.716 222.325,272.648 "/>
<polygon fill="none" stroke="#231F20" stroke-width="16" stroke-miterlimit="10" points="100.77,271.589 161.935,165.648 
	223.099,271.589 "/>
<polygon fill="none" stroke="#231F20" stroke-width="16" stroke-miterlimit="10" points="13.856,271.589 161.42,16 308.984,271.589 
	"/>
</svg>
